<?xml version="1.0" encoding="UTF-8"?>
<svg xmlns="http://www.w3.org/2000/svg" version="1.1" viewBox="0 0 1792.3 408">
  <defs>
    <style>
      .cls-1 {
        fill: #fff;
      }
    </style>
  </defs>
  <!-- Generator: Adobe Illustrator 28.6.0, SVG Export Plug-In . SVG Version: 1.2.0 Build 709)  -->
  <g>
    <g id="Layer_1">
      <path class="cls-1" d="M1516.4,297.4V114.4h29.2v183h-29.2Z"/>
      <path class="cls-1" d="M1203.6,219.9c-5.5,31.5-29.4,53.9-63.8,53.9s-58.4-22.3-63.8-53.9h-28.9c6.2,45.3,42.3,77.5,92.7,77.5s86.5-32.2,92.7-77.5h-29Z"/>
      <g>
        <polygon class="cls-1" points="785.6 297.4 845.8 161 849.6 152 849.6 152.2 866.4 114.4 837.3 114.4 781.3 245.8 725.4 114.4 684.2 114.4 684.2 297.4 713 297.4 713 152 775.3 297.4 785.6 297.4"/>
        <polygon class="cls-1" points="849.6 180.4 849.6 297.4 878.5 297.4 878.5 115.1 849.6 180.4"/>
      </g>
      <g>
        <polygon class="cls-1" points="1456.3 280 1456.3 114.5 1427.5 114.5 1427.5 236.3 1456.3 280"/>
        <polygon class="cls-1" points="1419.6 241.2 1323 114.5 1293.3 114.5 1293.3 297.4 1322.1 297.4 1322.1 157 1428.4 297.4 1456.3 297.4 1456.3 296.9 1419.6 241.2"/>
      </g>
      <polygon class="cls-1" points="1707.1 231.6 1757.8 297.3 1792.3 297.3 1724.5 209.5 1707.1 231.6"/>
      <polygon class="cls-1" points="1641.6 297.4 1786.2 113.9 1752.2 113.9 1699.4 183.9 1646.2 113.9 1611.4 113.9 1680.7 202.8 1606.1 297.2 1641.6 297.4"/>
      <path class="cls-1" d="M1075,210.4c0-1.5-.1-3-.1-4.6,0-39,25.1-67.9,65-67.9s65,28.9,65,67.9,0,3.1-.1,4.6h28.8c0-1.5.1-3,.1-4.6,0-52.6-38.2-91.6-93.7-91.6s-93.7,39-93.7,91.6,0,3.1.1,4.6h28.8Z"/>
      <g id="oaWZ2n.tif">
        <path class="cls-1" d="M1263.7,338.9l1.3.7-9.4,18.4-1.3-.7c-2.4-1.3-4.8-2.6-7.1-3.8-6.1-3.3-12-6.4-17.8-9.7-2-1.2-3.3-1.1-5.4.2-6.4,4-13.2,7.8-20.8,11.8-2.2,1.1-3.1,2-3.2,4.6-.3,5.1-.7,10.3-1.1,15.3-.4,5.4-.9,11-1.1,16.4-.2,5-3.1,6.2-6.1,6.7-14.1,2.2-27.9,4.4-42.5,6.8l-15.6,2.5-2.4-5.8c-1.4-3.5-2.9-7-4.3-10.6-.8-1.9-1.5-3.9-2.2-5.8-1.6-4.1-3.2-8.4-5.1-12.5-.6-1.3-2.3-2.7-3.7-3-4.4-1.1-9-2-13.4-2.8-3.5-.7-7.1-1.4-10.7-2.2-2.2-.5-3.3-.2-4.9,1.5-6.1,6-12.2,11.9-18.7,18.1-2.4,2.3-4.9,4.7-7.4,7.1l-.8.8-4.7-2.9c-3.4-2.1-7.3-4.5-11.2-6.9-3.2-2-6.3-3.9-9.5-5.9-7.8-4.8-15.8-9.8-23.7-14.5-3.5-2.1-4.4-4.5-3-8.5,1.9-5.5,3.6-11.2,5.3-16.6,1.3-4.3,2.7-8.7,4.2-13,.8-2.5.5-3.9-1.2-6-5.4-6.1-10.4-12.8-15-19-1.5-2.1-2.6-2.6-5-2.3-6.3.8-12.6,1.4-18.8,2.1-4.1.4-8.3.8-12.5,1.3-3.5.4-5.4-.9-6.5-4.3-4.7-14.5-11-33.6-17.6-52.5-1.6-4.7,0-6.8,3.3-8.8,4.8-3,9.7-6.1,14.4-9.2,3.7-2.4,7.6-5,11.5-7.4,1.9-1.2,2.4-2.2,2.3-4.6-.2-7.6,0-15.6.5-24,.2-3.3-.5-4.8-2.9-6.4-6.9-4.6-13.9-9.5-20.6-14.2-2.7-1.9-5.4-3.8-8-5.7l-1-.7,4.5-12c5.6-15.1,11.5-30.7,17.3-45.9.8-2.1,4.4-3.4,6.4-3.2,5.2.6,10.4,1.3,15.4,2,5.2.7,10.5,1.5,15.7,2.1,1.3.1,3.4-.6,4.3-1.6,2.8-3.1,5.6-6.4,8.2-9.5,2.6-3.1,5.3-6.3,8.1-9.4,1.7-1.8,1.9-3.1,1.2-5.6-2-6.6-3.8-13.4-5.6-20-1-3.5-1.9-7.1-2.9-10.6-.6-2.2-1.5-5.2,2.5-7.4,12.8-7.2,25.3-14.3,38.5-21.9,4.3-2.5,8.7-5,13.1-7.5l1.1-.6.8.9c1.9,2.1,3.8,4.2,5.7,6.3,4.4,4.7,8.9,9.5,12.6,14.9,4.9,6.9,9.8,8.5,17.8,5.9,3.5-1.1,7.2-1.5,10.7-1.9,2-.2,4.2-.4,6.2-.8,1.3-.2,2.7-1.1,2.9-1.6,4.2-9.3,8.4-18.9,12.4-28.1l2.1-4.8c0,0,0-.2,0-.3,0-.2,0-.4,0-.6V0s4.7,0,4.7,0c2.8.6,5.5,1.2,8.3,1.9,6.2,1.4,12.6,2.9,18.8,4.2,7.2,1.5,14.3,2.9,21.8,4.4,3.2.6,6.5,1.3,9.8,1.9l1.2.2v1.2c.2,3.3.3,6.6.4,9.9.3,8.2.6,16.7.8,25,0,3.3,1,4.8,3.8,6.4,6,3.2,12.3,7.1,20,12.3,2,1.3,3.2,1.4,5,.4,5.3-2.8,10.8-5.5,16.1-8.1l4.4-2.2c1.1-.5,2.2-1,3.4-1.5.6-.2,1.2-.5,1.8-.8l1.3-.6,8.8,18.4-9.1,4.6c-9.9,5-19.2,9.6-28.9,14.3-1.7.8-4.5.1-5.9-1-10.8-9-23.1-16.5-36.4-22.5-2-.9-3.5-3.7-3.7-5.6-.7-10.6-1-19.5-1-27.9,0-4.2-1.2-5.6-5.1-6.2-7-1-14.4-2.5-23.4-4.6-3.1-.7-4.1-.2-5.3,2.6-3.3,8.3-7.1,16.9-11.5,26.3-.9,1.9-3.6,4.1-5.8,4.1-13.9.3-28,2.6-41.9,6.9-2.1.6-5.2-.7-6.8-2.4-5.4-5.8-10.8-12-15.9-17.9l-2.7-3.1c-.8-.9-1.5-1.9-2.1-2.9,0,0,0,0,0,0-1.9,1.1-3.9,2.2-5.8,3.3-7.4,4.2-14.4,8.2-21.2,12.3-.5.3-1.1,2.2-.9,3,2,8.1,4.4,16.8,7.7,28.1,1.1,3.8,0,6.2-2.3,8.7-9.8,11-18.3,21.1-26.2,31-2.6,3.3-5.2,4.4-9.1,3.8-4-.6-8-1.2-12-1.7-5-.7-10.2-1.4-15.3-2.3-2.1-.4-2.7,0-3.5,2.4-3.8,10.5-6.8,18.5-9.7,26-.8,2-.6,2.7,1.1,3.9,4.3,2.9,8.6,5.9,12.8,8.8,3.6,2.5,7.2,5,10.9,7.5,2.2,1.5,4.2,3.3,3.5,7.4-2.4,13.8-2.7,28-.9,43.7.2,2-1.5,4.7-3.2,5.9-7.7,5.2-16,10.6-24.6,15.9-1.8,1.1-2.1,1.8-1.4,3.8,3.5,9.8,6.4,18.6,9,26.8.7,2.2,1.3,2.5,3.7,2.2,9.4-1.2,19.3-2.3,29.4-3.1,1.9-.2,4.6,1.2,5.5,2.9,7.4,12.8,16.5,24.2,26.8,33.9,3,2.8,2.1,5.6,1.5,7.7-.9,2.8-1.8,5.7-2.7,8.5-2,6.3-4,12.9-6.1,19.3-.7,2.2-.5,2.9,1.1,3.9,8,4.8,16.2,9.8,24.1,14.9,1.5,1,2,.9,3.4-.6,3-3.3,6.1-6.5,9.1-9.7,3.6-3.8,7.4-7.8,11-11.8,2.3-2.5,4.6-3.1,7.9-1.9,13.1,4.7,26.8,7.4,40.7,8.2,2.2.1,4.8,2.3,5.6,4.2,2.8,6.4,5.3,13,7.9,19.4.9,2.4,1.9,4.8,2.8,7.2.4,1,.8,2,1.3,3,0,.1.1.3.2.4,2.1-.3,4.2-.7,6.3-1,8.2-1.3,16-2.5,23.9-4,.5-.2,1.7-1.7,1.8-2.7.9-9,1.7-18.7,2.3-29.7.2-3.5,1.6-5.6,4.8-6.8,12.4-4.7,24.2-11.4,35.9-20.4,1.4-1.1,4.4-2.2,6.3-1.2,9.5,4.9,18.6,9.9,28.3,15.2,2.6,1.4,5.2,2.9,7.9,4.3Z"/>
      </g>
      <g>
        <polygon class="cls-1" points="309.1 161.9 318.6 138.2 318.6 138.4 328.3 114.4 300.7 114.4 224.3 297.4 254.4 297.4 309.1 161.9"/>
        <polygon class="cls-1" points="337.5 116.3 323.6 150.8 357.5 235.1 289.6 235.1 279.8 259.5 365.8 259.5 381.4 297.4 413.1 297.4 337.5 116.3"/>
      </g>
      <g>
        <polygon class="cls-1" points="135.2 114.4 135.2 191.2 38.1 191.2 38.1 215.6 135.2 215.6 135.2 297.4 164 297.4 164 114.4 135.2 114.4"/>
        <polygon class="cls-1" points="28.8 191.2 28.8 191.2 28.8 114.4 0 114.4 0 297.4 28.8 297.4 28.8 215.6 28.8 215.6 28.8 191.2"/>
      </g>
      <path class="cls-1" d="M605.3,222c-7,7.2-15.8,12.8-25.8,16.1l39.5,58.8h-35.5l-35-53.9c-1.9.1-3.9.2-5.8.3-9.6.4-18.9.3-28.7.2-3.7,0-7.4,0-11.2,0v54h-28.7v-79.5h70.5c11.1,0,19.9-1.5,27.7-4.8,14-5.9,21.4-17.8,21.3-34.3,0-16.5-7.6-28.6-21.5-34-7.1-2.8-12.7-4.1-17.8-4.3-12.7-.4-25.6-.3-38-.3-4.6,0-9.2,0-13.9,0v70.4h-28.4v-96.3h36.7c15,0,30.9.2,46.5.7,21.1.8,37.8,7.9,49.9,21.3,14.7,16.3,19.8,38.5,13.5,59.6-3,10-8.3,18.9-15.3,26.1Z"/>
    </g>
  </g>
</svg>