 <svg  version="1.0" xmlns="http://www.w3.org/2000/svg"  width="300.000000pt" height="230.000000pt" viewBox="0 0 300.000000 230.000000"  preserveAspectRatio="xMidYMid meet">  <g transform="translate(0.000000,230.000000) scale(0.050000,-0.050000)" fill="#0d317f" stroke="none"> <path d="M1710 4065 c-27 -60 -50 -117 -50 -126 0 -26 -30 -39 -153 -61 l-115 -22 -101 113 -101 113 -205 -113 c-113 -62 -205 -122 -205 -133 0 -11 15 -76 33 -145 l34 -126 -78 -95 -78 -95 -125 13 c-69 7 -137 17 -151 23 -22 8 -59 -74 -189 -424 -5 -13 46 -61 113 -106 l121 -82 0 -129 0 -128 -130 -76 c-71 -42 -126 -85 -121 -96 4 -11 40 -115 80 -231 l72 -212 104 15 c188 27 199 24 279 -82 l75 -97 -48 -140 -48 -141 212 -125 211 -125 102 110 c101 108 104 109 182 93 44 -10 99 -21 123 -26 32 -7 58 -45 98 -149 47 -120 61 -138 97 -130 23 5 126 23 229 39 224 34 202 15 217 188 l12 142 108 62 109 61 108 -61 108 -61 32 62 c18 34 29 64 25 68 -3 3 -70 37 -148 77 l-143 71 -60 -45 c-34 -24 -106 -65 -161 -91 -105 -49 -123 -86 -124 -256 0 -78 -1 -78 -151 -95 l-121 -14 -50 126 -50 127 -118 15 c-65 8 -149 25 -186 37 -67 22 -72 20 -169 -77 l-100 -100 -116 69 -116 69 47 136 46 137 -79 77 c-44 42 -98 107 -121 143 l-41 67 -143 -13 -143 -14 -41 128 -42 128 116 69 115 69 7 196 6 196 -115 74 c-63 41 -112 83 -108 94 5 11 25 67 45 125 41 116 46 118 234 87 85 -14 98 -11 118 26 12 22 66 88 121 145 l98 104 -40 131 -39 131 105 61 c136 77 132 78 235 -39 l87 -100 98 30 c53 16 137 29 185 29 l88 0 59 132 c52 116 65 131 104 121 25 -6 83 -17 129 -24 l83 -14 14 -147 c11 -116 21 -149 49 -158 20 -6 93 -48 162 -93 l126 -82 147 73 146 72 -31 60 -31 60 -99 -50 c-123 -62 -117 -63 -239 13 l-101 63 0 146 0 145 -115 23 c-63 13 -171 35 -240 49 l-124 26 -51 -110z"/> <path d="M1465 3278 c-220 -85 -402 -321 -432 -563 l-12 -95 97 0 97 0 12 90 c83 605 1053 567 1053 -41 0 -45 7 -49 97 -49 l96 0 -16 120 c-60 440 -552 707 -992 538z"/> <path d="M2940 2972 l0 -352 102 0 102 0 -6 265 -6 265 232 -2 c343 -4 476 -90 476 -306 0 -238 -121 -301 -575 -302 l-325 0 0 -290 0 -290 102 0 102 0 -7 205 -7 205 280 11 c493 19 686 201 609 575 -54 263 -218 345 -724 359 l-355 9 0 -352z"/> <path d="M4793 3305 c-7 -12 -261 -570 -555 -1221 l-57 -126 101 6 100 6 136 310 c75 171 209 474 297 675 l161 365 -87 0 c-48 0 -91 -7 -96 -15z"/> <path d="M4975 3135 c-47 -114 -51 -94 85 -397 66 -147 120 -272 120 -277 0 -6 -113 -8 -250 -4 l-251 6 -29 -71 c-17 -39 -30 -76 -30 -81 0 -6 143 -11 318 -11 l318 0 69 -165 69 -165 105 -6 c58 -3 102 2 98 12 -40 102 -569 1244 -577 1244 -5 0 -26 -38 -45 -85z"/> <path d="M1048 2475 c139 -696 1266 -691 1405 6 l12 59 -102 0 c-79 0 -103 -7 -103 -31 0 -110 -196 -323 -336 -365 -279 -84 -604 66 -669 308 l-23 88 -99 0 -98 0 13 -65z"/> </g> </svg> 